<?xml version="1.0" encoding="iso-8859-1"?>

<!DOCTYPE svg PUBLIC "-//W3C//DTD SVG 1.1//EN" "http://www.w3.org/Graphics/SVG/1.1/DTD/svg11.dtd">
<svg version="1.1" id="Capa_1" xmlns="http://www.w3.org/2000/svg" xmlns:xlink="http://www.w3.org/1999/xlink" x="0px" y="0px"
	 style="enable-background:new 0 0 105.104 105.104;" xml:space="preserve">
	<symbol id="maybe" viewBox="0 0 105.104 105.104">
<g>
</g>
<g>
	<path d="M32.204,49.958l14.582-3.76c1.423-0.367,2.794-1.71,3.188-3.125l3.663-13.113c0.223-0.798,0.094-1.615-0.356-2.243
		c-0.449-0.629-1.182-1.016-2.011-1.063l-1.565-0.083c-1.512,0-2.981,1.079-3.418,2.509l-2.394,7.829
		c-0.219,0.715-1.08,1.526-1.808,1.703l-10.83,2.099c-1.507,0.366-2.721,1.866-2.764,3.414c0,0-0.137,4.736,0.329,5.216
		C29.266,49.799,29.884,50.292,32.204,49.958z"/>
	<path d="M41.908,34.769c0.443,0,0.878-0.035,1.308-0.087l1.829-5.982c0.597-1.955,2.601-3.429,4.661-3.429l1.634,0.084
		c0.444,0.025,0.86,0.139,1.256,0.292c0.09-0.56,0.149-1.13,0.149-1.715c0-5.975-4.861-10.836-10.836-10.836
		s-10.836,4.861-10.836,10.836S35.933,34.769,41.908,34.769z"/>
	<path d="M55.615,39.353c-0.603-0.84-1.662-1.502-2.743-1.82l-1.646,5.891c-0.518,1.855-2.248,3.552-4.115,4.034l-14.583,3.76
		c-0.693,0.107-1.193,0.15-1.671,0.15c-0.13,0-0.246-0.009-0.366-0.016v19.084v0.503v29.166c0,2.757,2.243,5,5,5h0.353
		c2.757,0,5-2.243,5-5V73.938h2.126v26.166c0,2.757,2.243,5,5,5h0.352c2.757,0,5-2.243,5-5V70.938v-0.503v-0.12h0.314
		c1.449,0,3.141-0.989,3.853-2.252l6.942-12.324c0.727-1.289,0.62-3.24-0.243-4.441L55.615,39.353z M56.669,55.539l-3.346,5.451
		V48.58l3.281,4.708C57.006,53.866,57.038,54.939,56.669,55.539z"/>
</g>
<g>
</g>
<g>
</g>
<g>
</g>
<g>
</g>
<g>
</g>
<g>
</g>
<g>
</g>
<g>
</g>
<g>
</g>
<g>
</g>
<g>
</g>
<g>
</g>
<g>
</g>
<g>
</g>
<g>
</g>
</symbol>
</svg>
